<?xml version="1.0" standalone="no"?>
<!DOCTYPE svg PUBLIC "-//W3C//DTD SVG 20010904//EN"
 "http://www.w3.org/TR/2001/REC-SVG-20010904/DTD/svg10.dtd">
<svg version="1.0" xmlns="http://www.w3.org/2000/svg"
 width="162.000000pt" height="106.000000pt" viewBox="0 0 162.000000 106.000000"
 preserveAspectRatio="xMidYMid meet">

<g transform="translate(0.000000,106.000000) scale(0.100000,-0.100000)"
fill="#000000" stroke="none">
<path d="M630 693 c0 -55 5 -54 14 5 4 26 2 42 -4 42 -5 0 -10 -21 -10 -47z"/>
<path d="M717 733 c-3 -5 -8 -30 -12 -57 -7 -46 -7 -48 14 -41 11 3 21 3 21
-1 0 -18 -65 -235 -67 -227 -2 6 0 42 5 82 8 64 7 71 -9 71 -10 0 -20 -4 -23
-9 -7 -10 -46 -196 -46 -215 0 -7 20 -11 57 -10 l58 2 9 49 8 50 79 6 c90 7
133 23 171 63 30 33 52 104 43 137 -24 84 -67 107 -204 107 -55 0 -102 -3
-104 -7z m173 -103 c25 -25 25 -41 -1 -74 -18 -22 -28 -26 -76 -26 l-55 0 7
46 c10 71 13 74 61 74 31 0 50 -6 64 -20z"/>
</g>
</svg>
